<svg width="64" height="15" viewBox="0 0 64 15" fill="none" xmlns="http://www.w3.org/2000/svg">
<path d="M1.70312 0.625V14.1094H0.359375V0.625H1.70312ZM63.4844 0.625V14.1094H62.1406V0.625H63.4844Z" fill="#EF4444"/>
<path d="M14.875 10.3125L14.5781 12H8.70312L8.99219 10.3125H14.875ZM11.3281 0.625L9.35156 12H7.25L9.21875 0.625H11.3281ZM14.9688 5.32031L14.6875 6.96875H9.57031L9.85938 5.32031H14.9688ZM16.5234 0.625L16.2266 2.32031H10.375L10.6797 0.625H16.5234ZM23.625 10.3125L23.3281 12H17.4531L17.7422 10.3125H23.625ZM20.0781 0.625L18.1016 12H16L17.9688 0.625H20.0781ZM23.7188 5.32031L23.4375 6.96875H18.3203L18.6094 5.32031H23.7188ZM25.2734 0.625L24.9766 2.32031H19.125L19.4297 0.625H25.2734ZM27.6719 0.625H29.4141L30.9375 9.17188L35.4297 0.625H37.3281L31.2578 12H29.7969L27.6719 0.625ZM26.7188 0.625H28.5L27.4453 8.57812L26.8438 12H24.75L26.7188 0.625ZM36.4062 0.625H38.1953L36.2266 12H34.125L34.75 8.39844L36.4062 0.625ZM40.2969 0.625L44.2031 0.632812C44.8958 0.643229 45.5208 0.770833 46.0781 1.01562C46.6354 1.26042 47.0677 1.6276 47.375 2.11719C47.6823 2.60677 47.8073 3.22917 47.75 3.98438C47.7031 4.59375 47.5495 5.11198 47.2891 5.53906C47.0339 5.96615 46.6979 6.32812 46.2812 6.625C45.8646 6.91667 45.388 7.16406 44.8516 7.36719L44.1328 7.70312H40.4688L40.7578 6.00781L43.2969 6.02344C43.6979 6.01823 44.0625 5.94271 44.3906 5.79688C44.724 5.64583 45 5.43229 45.2188 5.15625C45.4427 4.875 45.5833 4.52865 45.6406 4.11719C45.6875 3.7526 45.6589 3.4401 45.5547 3.17969C45.4557 2.91406 45.2839 2.71094 45.0391 2.57031C44.7995 2.42448 44.5 2.34375 44.1406 2.32812L42.1094 2.32031L40.4297 12H38.3281L40.2969 0.625ZM44.6172 12L42.9375 6.90625L45.0469 6.89844L46.8516 11.8828V12H44.6172ZM51.2344 5.39844L52.2812 5.41406C52.6458 5.40365 52.9792 5.33333 53.2812 5.20312C53.5833 5.06771 53.8307 4.86979 54.0234 4.60938C54.2214 4.34896 54.3385 4.03125 54.375 3.65625C54.4115 3.34896 54.3854 3.07812 54.2969 2.84375C54.2083 2.60938 54.0599 2.42448 53.8516 2.28906C53.6484 2.15365 53.3906 2.08333 53.0781 2.07812C52.7604 2.07292 52.474 2.13281 52.2188 2.25781C51.9688 2.3776 51.7604 2.55208 51.5938 2.78125C51.4271 3.00521 51.3151 3.26823 51.2578 3.57031L49.2422 3.57812C49.2891 2.91667 49.5026 2.35156 49.8828 1.88281C50.2682 1.41406 50.7474 1.05729 51.3203 0.8125C51.8932 0.567708 52.4948 0.447917 53.125 0.453125C53.7656 0.463542 54.3438 0.59375 54.8594 0.84375C55.375 1.08854 55.776 1.44792 56.0625 1.92188C56.349 2.39062 56.4688 2.96615 56.4219 3.64844C56.3906 4.1276 56.2552 4.54688 56.0156 4.90625C55.7812 5.26562 55.4792 5.5651 55.1094 5.80469C54.7396 6.04427 54.3385 6.22396 53.9062 6.34375C53.474 6.46354 53.0443 6.52344 52.6172 6.52344L51.0547 6.51562L51.2344 5.39844ZM50.9844 6.99219L51.1641 5.89062L52.4922 5.89844C52.9401 5.90885 53.3646 5.97135 53.7656 6.08594C54.1719 6.20052 54.5312 6.3724 54.8438 6.60156C55.1615 6.82552 55.4036 7.11719 55.5703 7.47656C55.737 7.83073 55.8047 8.25781 55.7734 8.75781C55.737 9.3099 55.5964 9.80208 55.3516 10.2344C55.112 10.6615 54.7943 11.0208 54.3984 11.3125C54.0078 11.599 53.5677 11.8151 53.0781 11.9609C52.5938 12.1016 52.0911 12.1693 51.5703 12.1641C51.0859 12.1536 50.6354 12.0729 50.2188 11.9219C49.8073 11.7656 49.4479 11.5495 49.1406 11.2734C48.8385 10.9922 48.6042 10.6536 48.4375 10.2578C48.276 9.85677 48.2005 9.40625 48.2109 8.90625H50.2188C50.2083 9.21875 50.2604 9.4974 50.375 9.74219C50.4948 9.98177 50.6667 10.1719 50.8906 10.3125C51.1146 10.4479 51.388 10.5182 51.7109 10.5234C52.0755 10.5339 52.4062 10.4661 52.7031 10.3203C53 10.1745 53.2422 9.96615 53.4297 9.69531C53.6172 9.42448 53.7318 9.10677 53.7734 8.74219C53.8203 8.3724 53.7865 8.0599 53.6719 7.80469C53.5573 7.54948 53.3776 7.35417 53.1328 7.21875C52.888 7.08333 52.5833 7.01042 52.2188 7L50.9844 6.99219Z" fill="white"/>
</svg>
