<svg width="1203" height="312" viewBox="0 0 1203 312" fill="none" xmlns="http://www.w3.org/2000/svg">
<path d="M401.704 298.32C377.704 298.32 358.792 291.408 344.968 277.584C331.336 263.76 324.52 244.56 324.52 219.984C324.52 204.048 327.496 190.224 333.448 178.512C339.4 166.608 347.752 157.488 358.504 151.152C369.448 144.816 382.216 141.648 396.808 141.648C418.312 141.648 434.824 148.56 446.344 162.384C457.864 176.208 463.624 196.176 463.624 222.288C463.624 226.704 463.528 229.968 463.336 232.08H365.416C367.336 242.256 371.752 250.032 378.664 255.408C385.576 260.592 394.888 263.184 406.6 263.184C413.704 263.184 421.096 262.32 428.776 260.592C436.456 258.672 443.176 256.176 448.936 253.104L455.56 285.648C447.88 289.68 439.336 292.752 429.928 294.864C420.712 297.168 411.304 298.32 401.704 298.32ZM424.744 201.552C424.168 193.296 421.288 186.768 416.104 181.968C410.92 176.976 404.008 174.48 395.368 174.48C387.112 174.48 380.296 176.88 374.92 181.68C369.736 186.48 366.472 193.104 365.128 201.552H424.744ZM565.392 298.32C541.392 298.32 522.48 291.408 508.656 277.584C495.024 263.76 488.208 244.56 488.208 219.984C488.208 204.048 491.184 190.224 497.136 178.512C503.088 166.608 511.44 157.488 522.192 151.152C533.136 144.816 545.904 141.648 560.496 141.648C582 141.648 598.512 148.56 610.032 162.384C621.552 176.208 627.312 196.176 627.312 222.288C627.312 226.704 627.216 229.968 627.024 232.08H529.104C531.024 242.256 535.44 250.032 542.352 255.408C549.264 260.592 558.576 263.184 570.288 263.184C577.392 263.184 584.784 262.32 592.464 260.592C600.144 258.672 606.864 256.176 612.624 253.104L619.248 285.648C611.568 289.68 603.024 292.752 593.616 294.864C584.4 297.168 574.992 298.32 565.392 298.32ZM588.432 201.552C587.856 193.296 584.976 186.768 579.792 181.968C574.608 176.976 567.696 174.48 559.056 174.48C550.8 174.48 543.984 176.88 538.608 181.68C533.424 186.48 530.16 193.104 528.816 201.552H588.432ZM657.689 145.68H697.433V168.72C709.145 150.672 724.985 141.648 744.953 141.648C756.281 141.648 765.881 144.336 773.753 149.712C781.817 154.896 787.673 162.384 791.321 172.176C798.041 161.616 805.529 153.936 813.785 149.136C822.233 144.144 831.833 141.648 842.585 141.648C858.521 141.648 870.905 146.448 879.737 156.048C888.761 165.456 893.273 178.608 893.273 195.504V294H852.665V201.84C852.665 194.16 850.745 188.208 846.905 183.984C843.257 179.568 838.265 177.36 831.929 177.36C824.057 177.36 816.761 180.624 810.041 187.152C803.321 193.68 798.329 202.032 795.065 212.208V294H754.457V201.84C754.457 194.352 752.537 188.4 748.697 183.984C744.857 179.568 739.769 177.36 733.433 177.36C726.329 177.36 719.609 180.048 713.273 185.424C707.129 190.608 702.137 198 698.297 207.6V294H657.689V145.68ZM930.24 145.68H970.848V169.872H973.152C978.72 160.08 984.192 152.88 989.568 148.272C995.136 143.664 1002.05 141.36 1010.3 141.36C1013.76 141.36 1016.64 141.744 1018.94 142.512L1014.62 186.288C1009.63 184.944 1005.6 184.272 1002.53 184.272C998.112 184.272 994.176 185.136 990.72 186.864C987.456 188.592 984.48 190.896 981.792 193.776C979.296 196.656 975.648 201.072 970.848 207.024V294H930.24V145.68ZM1057.08 298.32C1047.29 298.32 1037.21 297.456 1026.84 295.728L1032.02 260.016C1043.16 261.936 1052.76 262.896 1060.82 262.896C1076.18 262.896 1088.47 259.632 1097.69 253.104C1106.9 246.576 1111.51 238.032 1111.51 227.472C1111.51 220.752 1109.59 215.472 1105.75 211.632C1101.91 207.792 1096.54 205.872 1089.62 205.872C1084.82 205.872 1079.54 206.832 1073.78 208.752L1068.02 181.104C1077.24 178.224 1085.59 173.52 1093.08 166.992C1100.76 160.272 1104.6 153.552 1104.6 146.832C1104.6 142.608 1102.97 139.248 1099.7 136.752C1096.63 134.064 1092.41 132.72 1087.03 132.72C1081.66 132.72 1076.09 134.256 1070.33 137.328C1064.57 140.208 1059.19 144.336 1054.2 149.712L1030.01 123.216C1038.07 115.344 1047.29 109.2 1057.66 104.784C1068.22 100.176 1079.16 97.872 1090.49 97.872C1101.05 97.872 1110.36 99.792 1118.42 103.632C1126.49 107.28 1132.73 112.464 1137.14 119.184C1141.56 125.712 1143.77 133.104 1143.77 141.36C1143.77 155.184 1137.53 168.048 1125.05 179.952C1134.07 184.176 1140.89 190.32 1145.5 198.384C1150.3 206.256 1152.7 215.28 1152.7 225.456C1152.7 239.088 1148.66 251.472 1140.6 262.608C1132.73 273.744 1121.5 282.48 1106.9 288.816C1092.31 295.152 1075.7 298.32 1057.08 298.32Z" fill="white"/>
<path d="M119.508 278.231C119.628 282.617 118.859 286.983 117.245 291.073C115.631 295.164 113.205 298.896 110.108 302.053C107.015 305.195 103.312 307.695 99.2188 309.403C95.1261 311.112 90.7267 311.995 86.2811 312C81.8345 312.001 77.4332 311.121 73.3395 309.412C69.2458 307.704 65.5437 305.201 62.4538 302.053C59.3517 298.9 56.922 295.168 55.3077 291.077C53.6933 286.986 52.927 282.618 53.0539 278.231C53.1286 272.531 54.7132 266.945 57.675 262.053C60.6286 257.153 64.8349 253.118 69.8708 250.35C69.6717 251.24 70.6175 249.901 69.8708 250.35L85.3021 236.859C97.5346 224.043 104.367 207.134 104.417 189.549C104.417 165.653 90.2219 141.358 69.821 128.65C70.6009 129.099 69.5223 127.883 69.821 128.65C64.7825 125.874 60.5783 121.837 57.6336 116.947C54.6787 112.05 53.0849 106.473 53.0124 100.777C52.891 96.3895 53.6597 92.0219 55.2737 87.9301C56.8878 83.8383 59.3146 80.1044 62.4123 76.947C65.5053 73.8056 69.2069 71.3067 73.2981 69.5982C77.3894 67.8897 81.7871 67.0062 86.2313 67C90.6781 66.9977 95.0797 67.8772 99.1735 69.5862C103.267 71.2953 106.969 73.7986 110.059 76.947C113.162 80.0989 115.592 83.8306 117.207 87.9221C118.821 92.0135 119.587 96.3818 119.459 100.769C119.545 118.508 126.51 135.544 138.93 148.397L145.708 154.931C148.413 157.258 151.25 159.43 154.204 161.448C159.356 164.143 163.679 168.193 166.682 173.134C168.93 176.833 170.393 180.942 170.981 185.214C171.569 189.485 171.271 193.829 170.105 197.984C168.938 202.139 166.928 206.017 164.195 209.385C161.462 212.753 158.063 215.54 154.204 217.577C154.478 217.03 153.681 217.871 154.204 217.577C143.782 224.062 135.161 232.994 129.116 243.572C123.055 254.167 119.754 266.074 119.508 278.231V278.231ZM156.701 100.671C156.701 107.172 158.651 113.534 162.31 118.94C165.955 124.339 171.147 128.551 177.227 131.043C183.3 133.533 189.99 134.184 196.442 132.914C202.894 131.644 208.814 128.511 213.449 123.914C218.097 119.304 221.261 113.446 222.543 107.075C223.826 100.703 223.17 94.1009 220.658 88.0945C218.147 82.095 213.886 76.9626 208.413 73.3455C202.024 69.1256 194.341 67.226 186.685 67.9726C179.028 68.7191 171.874 72.0653 166.45 77.437C160.211 83.611 156.707 91.9633 156.701 100.671V100.671ZM189.945 245.36C183.374 245.36 176.944 247.287 171.477 250.897C166.005 254.514 161.743 259.647 159.232 265.646C156.718 271.653 156.062 278.257 157.344 284.631C158.627 291.004 161.791 296.863 166.441 301.473C171.076 306.07 176.996 309.204 183.448 310.474C189.9 311.744 196.59 311.092 202.663 308.603C208.748 306.108 213.943 301.889 217.589 296.483C221.859 290.154 223.779 282.567 223.023 275.005C222.267 267.443 218.882 260.369 213.44 254.98C210.361 251.931 206.701 249.51 202.669 247.856C198.637 246.203 194.313 245.349 189.945 245.344V245.36ZM275 189.451C275 182.95 273.05 176.597 269.4 171.19C265.755 165.789 260.564 161.573 254.483 159.079C248.408 156.588 241.717 155.935 235.263 157.205C228.81 158.475 222.887 161.61 218.252 166.209C213.602 170.819 210.438 176.678 209.155 183.051C207.873 189.424 208.529 196.028 211.043 202.036C213.554 208.035 217.815 213.168 223.288 216.785C228.749 220.394 235.178 222.322 241.756 222.322C246.124 222.315 250.447 221.461 254.479 219.807C258.511 218.154 262.172 215.733 265.252 212.685C271.491 206.508 274.995 198.153 275 189.443V189.451Z" fill="#6366F1"/>
<path d="M33.5055 190C26.8734 190 20.4003 191.965 14.8888 195.644C9.37091 199.334 5.0753 204.568 2.54463 210.686C0.0127601 216.809 -0.648169 223.539 0.644605 230.033C1.93738 236.528 5.1264 242.498 9.81233 247.197C14.4907 251.873 20.459 255.06 26.96 256.353C33.4609 257.647 40.2015 256.99 46.3265 254.465C52.456 251.922 57.6894 247.625 61.3636 242.119C65.6659 235.669 67.5994 227.939 66.8376 220.234C66.0757 212.529 62.6651 205.322 57.182 199.831C54.0784 196.724 50.3898 194.256 46.3271 192.569C42.2645 190.882 37.9075 190.009 33.5055 190V190Z" fill="#6366F1"/>
</svg>
